/* XPM */
static char *evilvte[] = {
/* columns rows colors chars-per-pixel */
"32 32 59 1",
"  c #066406480621",
". c #078B07760752",
"X c #0AE10AC30A96",
"o c #1CBA1CBA1D45",
"O c #1FB01F9D20D8",
"+ c #2462245B25A5",
"@ c #27252735284B",
"# c #27B127A328EE",
"$ c #277727C8284C",
"% c #2ADE2B022C5D",
"& c #2E0D2E99304A",
"* c #333D335334C0",
"= c #36F5372C387D",
"- c #3AEE3B203C92",
"; c #3EF83EF4403A",
": c #434F434D4486",
"> c #467E46F748C5",
", c #46F2492A4C8A",
"< c #4AF94BD24DF3",
"1 c #4E044EA650CA",
"2 c #4E4A4FEF5378",
"3 c #532353215445",
"4 c #544756655A4C",
"5 c #5682585E5BAD",
"6 c #5B775B775C8A",
"7 c #5DB45EB160ED",
"8 c #5E6161476643",
"9 c #6324639A651D",
"0 c #639F65C26915",
"q c #6A656AFD6C93",
"w c #6C506E6B719B",
"e c #6EA570D073EE",
"r c #722B72DA747E",
"t c #74BC763778F8",
"y c #7AD07B1C7C48",
"u c #7AF47CE68003",
"i c #82F583B08564",
"p c #85CF89808FA0",
"a c #8C4E8C4E8D0E",
"s c #874D8ACB913D",
"d c #89D08DB0939B",
"f c #8DD291B29797",
"g c #8FA994769B80",
"h c #9246924692E3",
"j c #91A096459DF5",
"k c #964C992E9E57",
"l c #981A9B069FB8",
"z c #96539AF0A265",
"x c #9A179EA0A61F",
"c c #9B8CA05FA7D8",
"v c #9D79A262AA30",
"b c #A1A9A55AABA8",
"n c #A4F8AA65B378",
"m c #A92DAD71B4A3",
"M c #ADBEB0BAB594",
"N c #AAA4B070BA34",
"B c #B28CB5ABBAFE",
"V c #B658B973BE96",
"C c None",
/* pixels */
"CCCCCCCCCCCCCCCCCCCCCCCCCCCCCCCC",
"CCCCCCCCCCCCCCCCCCCCCCCCCCCCCCCC",
"CCCCCCCCCCCCCCCCCCCCCCCCCCCCCCCC",
"CCCCCCCCCCCCCCCCCCCCCCCCCCCCCCCC",
"CCCCCCCCCCCCCCCCCCCCCCCCCCCCCCCC",
"CCCCCCCCCCCCCCCCCCCCCCCCCCCCCCCC",
"CCCCxxxxxxxxxxxxbBBBBmbxkjfiCCCC",
"CCCCNvjjjjjjjjjjjzzjjjjjjznf=CCC",
"CCCCn8*==-----==****&&%%%-zd%CCC",
"CCCCn4%*=-::::;-=**%%%#@+%gd%CCC",
"CCCCn4*-:><13<,:--=*&%%%+&jd#CCC",
"CCCCn4*;>159974<:-=**%%%+&jd%CCC",
"CCCzn4=:<6qtyr94,:-=*&%%+&gd%CCC",
"CCCzn5=>39yaair6<:-=*&%%+&gd#CCC",
"CCCzn5=>4qiahay91:-=*&%%+&gs$CCC",
"CCCzn5=>30yaair7<:-=*&%%+&gd#CCC",
"CCCzn5=:<6qyyt05,:-=*&%%+&gf&CCC",
"CCCxn4-7<360095<:-=**%%%+&gg*CCC",
"CCCBn4=qy3<333<>;-=*&%%#+&gd%CCC",
"CCCVn4%<a9:>>>:--=**%%%#+&gs@CCC",
"CCCVm4=r9------==**&%%##+%gs+CCC",
"CCCMm4*:*>0q3==***&%%%#@+%gd#CCC",
"CCCbn4+##=33:%%%#$@++++Oo%jd#CCC",
"CCCxmt121<,<<<<<<<,,,,,,>5xs@CCC",
"CCClnbvvvvvvvvvvvcccxxxxxcvp#CCC",
"CCCiywtuttreqwwrwqq099777905oCCC",
"CCCCCCXXXXXXXXXXXXX..     ..CCCC",
"CCCCCCCCCCCCCCCCCCCCCCCCCCCCCCCC",
"CCCCCCCCCCCCCCCCCCCCCCCCCCCCCCCC",
"CCCCCCCCCCCCCCCCCCCCCCCCCCCCCCCC",
"CCCCCCCCCCCCCCCCCCCCCCCCCCCCCCCC",
"CCCCCCCCCCCCCCCCCCCCCCCCCCCCCCCC"
};
/* Copyright (c) Lu, Chao-Ming (Tetralet).                                    */
/* All rights reserved.                                                       */
/*                                                                            */
/* Redistribution and use in source and binary forms, with or without         */
/* modification, are permitted provided that the following conditions         */
/* are met:                                                                   */
/* 1. Redistributions of source code must retain the above copyright          */
/*    notice, this list of conditions and the following disclaimer.           */
/* 2. Redistributions in binary form must reproduce the above copyright       */
/*    notice, this list of conditions and the following disclaimer in the     */
/*    documentation and/or other materials provided with the distribution.    */
/* 3. Neither the name of the authors nor the names of its contributors       */
/*    may be used to endorse or promote products derived from this software   */
/*    without specific prior written permission.                              */
/*                                                                            */
/* THIS SOFTWARE IS PROVIDED BY THE AUTHORS AND CONTRIBUTORS ``AS IS'' AND    */
/* ANY EXPRESS OR IMPLIED WARRANTIES, INCLUDING, BUT NOT LIMITED TO, THE      */
/* IMPLIED WARRANTIES OF MERCHANTABILITY AND FITNESS FOR A PARTICULAR PURPOSE */
/* ARE DISCLAIMED.  IN NO EVENT SHALL THE AUTHORS OR CONTRIBUTORS BE LIABLE   */
/* FOR ANY DIRECT, INDIRECT, INCIDENTAL, SPECIAL, EXEMPLARY, OR CONSEQUENTIAL */
/* DAMAGES (INCLUDING, BUT NOT LIMITED TO, PROCUREMENT OF SUBSTITUTE GOODS    */
/* OR SERVICES; LOSS OF USE, DATA, OR PROFITS; OR BUSINESS INTERRUPTION)      */
/* HOWEVER CAUSED AND ON ANY THEORY OF LIABILITY, WHETHER IN CONTRACT, STRICT */
/* LIABILITY, OR TORT (INCLUDING NEGLIGENCE OR OTHERWISE) ARISING IN ANY WAY  */
/* OUT OF THE USE OF THIS SOFTWARE, EVEN IF ADVISED OF THE POSSIBILITY OF     */
/* SUCH DAMAGE.                                                               */
